<svg width="16" height="12" viewBox="0 0 16 12" fill="white" xmlns="http://www.w3.org/2000/svg">
<path d="M15.744 1.39774L15.2199 0.873644C15.0552 0.708831 14.8356 0.618164 14.6012 0.618164C14.3668 0.618164 14.1471 0.708831 13.9824 0.873644L6.61815 8.2378L2.01704 3.63657C1.85236 3.47202 1.63265 3.38122 1.39824 3.38122C1.16397 3.38122 0.94439 3.47202 0.779577 3.63657L0.25535 4.16054C0.0905366 4.32561 0 4.54545 0 4.77959C0 5.01387 0.0905366 5.23358 0.25535 5.39839L5.45028 10.5931C5.45717 10.6028 5.46446 10.6119 5.47291 10.6202L5.99714 11.1358C6.16182 11.2999 6.38153 11.382 6.61776 11.382H6.62049C6.85502 11.382 7.07473 11.2999 7.23916 11.1358L7.76351 10.6157C7.77197 10.6074 7.77912 10.6005 7.78342 10.5934L15.7439 2.63377C16.0853 2.29309 16.0853 1.73881 15.744 1.39774Z" fill="white"/>
</svg>
