<svg width="36" height="36" viewBox="0 0 36 36" fill="none" xmlns="http://www.w3.org/2000/svg">
<g clip-path="url(#clip0)">
<path d="M25.1141 0.145508H10.8113C4.99855 0.145508 0.269531 4.87453 0.269531 10.6873V24.9901C0.269531 30.8028 4.99855 35.5319 10.8113 35.5319H25.1141C30.9269 35.5319 35.6559 30.8028 35.6559 24.9901V10.6873C35.6558 4.87453 30.9268 0.145508 25.1141 0.145508ZM32.096 24.9901C32.096 28.8461 28.9701 31.972 25.1141 31.972H10.8113C6.95534 31.972 3.8294 28.8461 3.8294 24.9901V10.6873C3.8294 6.83126 6.95534 3.70537 10.8113 3.70537H25.1141C28.9701 3.70537 32.096 6.83126 32.096 10.6873V24.9901Z" fill="white"/>
<path d="M17.9608 8.68652C12.9143 8.68652 8.80859 12.7922 8.80859 17.8386C8.80859 22.8851 12.9143 26.9908 17.9608 26.9908C23.0073 26.9908 27.1129 22.8851 27.1129 17.8386C27.1129 12.7921 23.0073 8.68652 17.9608 8.68652ZM17.9608 23.431C14.8722 23.431 12.3685 20.9273 12.3685 17.8387C12.3685 14.7501 14.8723 12.2464 17.9608 12.2464C21.0493 12.2464 23.5531 14.7501 23.5531 17.8387C23.5531 20.9272 21.0493 23.431 17.9608 23.431Z" fill="white"/>
<path d="M27.1345 10.9484C28.3456 10.9484 29.3275 9.96649 29.3275 8.75531C29.3275 7.54412 28.3456 6.56226 27.1345 6.56226C25.9233 6.56226 24.9414 7.54412 24.9414 8.75531C24.9414 9.96649 25.9233 10.9484 27.1345 10.9484Z" fill="white"/>
</g>
<defs>
<clipPath id="clip0">
<rect width="35.3864" height="35.3864" fill="white" transform="translate(0.269531 0.145508)"/>
</clipPath>
</defs>
</svg>
